<?xml version="1.0" standalone="no"?>
<!DOCTYPE svg PUBLIC "-//W3C//DTD SVG 20010904//EN"
 "http://www.w3.org/TR/2001/REC-SVG-20010904/DTD/svg10.dtd">
<svg version="1.0" xmlns="http://www.w3.org/2000/svg"
 width="39.000000pt" height="43.000000pt" viewBox="0 0 39.000000 43.000000"
 preserveAspectRatio="xMidYMid meet">

<g transform="translate(0.000000,43.000000) scale(0.100000,-0.100000)"
fill="#000000" stroke="none">
<path d="M170 405 c-7 -8 -13 -32 -14 -53 -1 -34 1 -37 30 -40 40 -4 56 16 52
65 -3 32 -7 38 -29 41 -14 2 -31 -4 -39 -13z"/>
<path d="M220 300 c-8 -5 -25 -7 -36 -4 -12 3 -32 1 -43 -5 -22 -12 -61 -79
-61 -106 0 -25 60 -55 110 -55 51 1 134 37 138 60 2 16 -65 111 -83 117 -5 1
-17 -2 -25 -7z"/>
<path d="M15 126 c-18 -13 -18 -15 -2 -39 9 -14 42 -38 74 -54 99 -48 246 -33
288 31 10 15 14 33 10 46 -8 24 -57 27 -149 9 -53 -11 -102 -7 -187 17 -8 2
-24 -2 -34 -10z"/>
</g>
</svg>
